<?xml version="1.0" standalone="no"?><!DOCTYPE svg PUBLIC "-//W3C//DTD SVG 1.1//EN" "http://www.w3.org/Graphics/SVG/1.1/DTD/svg11.dtd"><svg t="1777450758182" class="icon" viewBox="0 0 1198 1024" version="1.1" xmlns="http://www.w3.org/2000/svg" p-id="18835" xmlns:xlink="http://www.w3.org/1999/xlink" width="233.984375" height="200"><path d="M674.304 75.136a74.752 74.752 0 0 1-24.96 55.872v94.016h249.6a149.824 149.824 0 0 1 150.016 149.632v499.2a149.824 149.824 0 0 1-149.824 149.824H299.712a149.824 149.824 0 0 1-149.824-149.824v-499.2a149.824 149.824 0 0 1 149.824-149.824h249.6v-94.08a74.944 74.944 0 1 1 124.864-55.872z m-374.592 249.6a49.92 49.92 0 0 0-49.92 49.92v499.2a49.92 49.92 0 0 0 49.92 49.92h599.424a49.92 49.92 0 0 0 49.92-49.92v-499.2a49.92 49.92 0 0 0-49.92-49.92zM99.904 474.56H0v299.712h99.904V474.56z m999.04 0h99.904v299.712h-99.904V474.56zM449.536 699.328a74.944 74.944 0 1 0-74.944-74.944 74.944 74.944 0 0 0 74.944 74.944z m299.712 0a74.944 74.944 0 1 0-74.944-74.944 74.944 74.944 0 0 0 74.944 74.944z" p-id="18836"></path></svg>