<?xml version="1.0" standalone="no"?><!DOCTYPE svg PUBLIC "-//W3C//DTD SVG 1.1//EN" "http://www.w3.org/Graphics/SVG/1.1/DTD/svg11.dtd"><svg t="1776317127713" class="icon" viewBox="0 0 1024 1024" version="1.1" xmlns="http://www.w3.org/2000/svg" p-id="8512" xmlns:xlink="http://www.w3.org/1999/xlink" width="200" height="200"><path d="M793.6 549.802667c33.621333-19.413333 50.389333-29.098667 56.021333-41.813334a42.666667 42.666667 0 0 0 0-34.688c-5.632-12.672-22.4-22.357333-56.021333-41.770666L326.4 161.792c-33.621333-19.370667-50.389333-29.098667-64.213333-27.648a42.666667 42.666667 0 0 0-30.037334 17.365333c-8.149333 11.221333-8.149333 30.634667-8.149333 69.418667v539.477333c0 38.826667 0 58.197333 8.149333 69.418667a42.666667 42.666667 0 0 0 30.037334 17.365333c13.824 1.450667 30.592-8.277333 64.213333-27.648l467.2-269.738666z" fill="#000000" p-id="8513"></path></svg>